<?xml version="1.0" encoding="utf-8"?>
<!-- Generator: Adobe Illustrator 15.0.0, SVG Export Plug-In . SVG Version: 6.00 Build 0)  -->
<!DOCTYPE svg PUBLIC "-//W3C//DTD SVG 1.1//EN" "http://www.w3.org/Graphics/SVG/1.1/DTD/svg11.dtd">
<svg version="1.1" id="" xmlns="http://www.w3.org/2000/svg" xmlns:xlink="http://www.w3.org/1999/xlink" x="0px" y="0px"
	 width="350px" height="350px" viewBox="0 0 350 350" enable-background="new 0 0 350 350" xml:space="preserve">
<rect x="122.241" y="85" width="4" height="22"/>
<rect x="126.241" y="96" fill="#32313A" width="3" height="4"/>
<rect x="129.241" y="92" fill="#32313A" width="4" height="4"/>
<polygon fill="#1F1F1F" points="133.241,81 133.241,74 129.241,74 129.241,85 126.241,85 126.241,96 129.241,96 129.241,92 
	133.241,92 137.241,92 137.241,81 "/>
<rect x="125.241" y="73" width="4" height="12"/>
<rect x="129.241" y="70" width="4" height="4"/>
<rect x="133.241" y="73" width="4" height="8"/>
<rect x="137.241" y="81" width="4" height="8"/>
<rect x="137.241" y="89" fill="#4F2401" width="4" height="7"/>
<rect x="141.241" y="96" fill="#4F2401" width="4" height="11"/>
<polygon fill="#F4B200" points="140.241,96 137.241,96 137.241,92 133.241,92 133.241,96 129.241,96 129.241,100 126.241,100 
	126.241,107 129.241,107 129.241,115 133.241,115 137.241,115 137.241,111 140.241,111 141.241,111 141.241,96 "/>
<rect x="125.241" y="107" fill="#4F2401" width="4" height="8"/>
<rect x="129.241" y="115" fill="#4F2401" width="4" height="4"/>
<rect x="133.241" y="115" fill="#D68300" width="4" height="4"/>
<rect x="137.241" y="111" fill="#D68300" width="7" height="4"/>
<rect x="141.241" y="107" fill="#8A4000" width="7" height="4"/>
<rect x="148.241" y="107" fill="#D68300" width="4" height="4"/>
<rect x="171.241" y="107" fill="#D68300" width="4" height="4"/>
<rect x="175.241" y="107" fill="#8A4000" width="3" height="4"/>
<rect x="178.241" y="104" fill="#8A4000" width="8" height="3"/>
<rect x="186.241" y="100" fill="#8A4000" width="7" height="4"/>
<rect x="193.241" y="100" fill="#F4B000" width="4" height="4"/>
<rect x="193.241" y="96" fill="#19191C" width="11" height="4"/>
<rect x="201.241" y="108" fill="#5A5A6C" width="3" height="3"/>
<rect x="204.241" y="92" fill="#19191C" width="15" height="4"/>
<rect x="223.241" y="96" width="4" height="8"/>
<rect x="219.241" y="96" fill="#1F1F1F" width="4" height="4"/>
<polygon fill="#32313A" points="219.241,100 219.241,96 204.241,96 204.241,100 204.241,103 204.241,107 204.241,111 201.241,111 
	201.241,114 208.241,114 208.241,111 215.241,111 215.241,107 219.241,107 219.241,103 223.241,103 223.241,100 "/>
<rect x="219.241" y="103" width="4" height="4"/>
<rect x="215.241" y="107" width="4" height="4"/>
<rect x="208.241" y="111" width="7" height="4"/>
<rect x="197.241" y="114" width="11" height="4"/>
<rect x="193.241" y="118" width="4" height="4"/>
<rect x="189.241" y="122" width="4" height="8"/>
<rect x="189.241" y="118" fill="#8A4000" width="4" height="4"/>
<rect x="189.241" y="130" fill="#8A4000" width="4" height="4"/>
<rect x="193.241" y="133" fill="#8A4000" width="4" height="4"/>
<rect x="193.241" y="137" width="4" height="19"/>
<rect x="197.241" y="160" width="4" height="15"/>
<rect x="208.241" y="193" width="4" height="4"/>
<rect x="208.241" y="178" width="4" height="4"/>
<rect x="204.241" y="182" fill="#481E00" width="4" height="4"/>
<rect x="216.241" y="171" fill="#481E00" width="3" height="4"/>
<rect x="212.241" y="175" width="4" height="3"/>
<rect x="212.241" y="197" width="4" height="4"/>
<rect x="193.241" y="156" fill="#481E00" width="4" height="4"/>
<rect x="197.241" y="175" fill="#481E00" width="4" height="4"/>
<rect x="189.241" y="134" fill="#D68300" width="4" height="3"/>
<rect x="185.241" y="118" fill="#D68300" width="4" height="4"/>
<rect x="152.241" y="104" fill="#843800" width="19" height="3"/>
<rect x="129.241" y="119" fill="#8A4000" width="4" height="3"/>
<rect x="129.241" y="122" fill="#E08C01" width="4" height="4"/>
<rect x="133.241" y="122" width="4" height="4"/>
<rect x="129.241" y="126" width="4" height="4"/>
<rect x="133.241" y="130" width="4" height="3.5"/>
<rect x="129.241" y="130" fill="#32313A" width="4" height="3.5"/>
<rect x="126.241" y="122" fill="#542801" width="3" height="11.5"/>
<rect x="133.241" y="133.5" fill="#8A4000" width="4" height="3.5"/>
<rect x="129.241" y="133.5" fill="#1F1F1F" width="4" height="3.5"/>
<rect x="126.241" y="133.5" fill="#8A4000" width="3" height="3.5"/>
<rect x="137.241" y="122" fill="#F4B000" width="4" height="8"/>
<rect x="144.241" y="130" fill="#481E00" width="4" height="4"/>
<rect x="148.241" y="130" fill="#D68300" width="4" height="4"/>
<rect x="133.241" y="126" fill="#FFFFFF" width="4" height="4"/>
<polygon fill="#FFF992" points="163.241,111 163.241,107 152.241,107 152.241,111 144.241,111 144.241,115 141.241,115 141.241,118 
	144.241,118 152.241,118 163.241,118 163.241,114 166.241,114 166.241,111 "/>
<rect x="163.241" y="118" fill="#FEBC00" width="4" height="4"/>
<rect x="174.241" y="118" fill="#FEBC00" width="4" height="4"/>
<rect x="174.241" y="130" fill="#FEBC00" width="4" height="4"/>
<rect x="163.241" y="130" fill="#FEBC00" width="4" height="4"/>
<polygon points="171.241,130 171.241,126 163.241,126 163.241,130 167.241,130 167.241,134 174.241,134 174.241,130 "/>
<polygon points="167.241,118 167.241,122 171.241,122 171.241,126 174.241,126 174.241,122 174.241,118 "/>
<rect x="167.241" y="122" fill="#FFFFFF" width="4" height="4"/>
<rect x="163.241" y="122" fill="#32313A" width="4" height="4"/>
<rect x="171.241" y="126" fill="#32313A" width="3" height="4"/>
<rect x="174.241" y="122" fill="#1F1F1F" width="4" height="8"/>
<polygon fill="#F4E534" points="197.241,100 197.241,104 186.241,104 186.241,107 178.241,107 178.241,111 171.241,111 171.241,107 
	163.241,107 163.241,111 166.241,111 166.241,114 163.241,114 163.241,118 167.241,118 171.241,118 178.241,118 178.241,134 
	185.241,134 185.241,137 189.241,137 189.241,122 185.241,122 185.241,118 186.241,118 189.241,118 197.241,118 197.241,114 
	201.241,114 201.241,108 204.241,108 204.241,100 "/>
<rect x="122.241" y="137" fill="#4F2401" width="4" height="15"/>
<rect x="126.241" y="141" fill="#E0402D" width="3" height="4"/>
<polygon fill="#E0402D" points="178.241,134 178.241,137 174.241,137 174.241,141 185.241,141 185.241,138 185.241,137 185.241,134 
	"/>
<rect x="126.241" y="145" fill="#B8050B" width="3" height="7"/>
<rect x="126.241" y="152" fill="#843800" width="3" height="4"/>
<rect x="129.241" y="156" fill="#0D0A03" width="4" height="19"/>
<rect x="125.241" y="178" fill="#0D0A03" width="4" height="19"/>
<rect x="122.241" y="197" fill="#0D0A03" width="3" height="4"/>
<rect x="118.241" y="205" fill="#0D0A03" width="4" height="11"/>
<rect x="122.241" y="201" fill="#8A4000" width="3" height="4"/>
<rect x="122.241" y="216" fill="#8A4000" width="4" height="4"/>
<rect x="122.241" y="220" fill="#0D0A03" width="4" height="3"/>
<rect x="126.241" y="223" fill="#0D0A03" width="7" height="4"/>
<rect x="122.241" y="235" fill="#0D0A03" width="11" height="4"/>
<rect x="122.241" y="227" fill="#4F2401" width="7" height="4"/>
<rect x="118.241" y="231" fill="#4F2401" width="4" height="4"/>
<rect x="122.241" y="231" fill="#F4E735" width="4" height="4"/>
<rect x="129.241" y="231" fill="#F4E735" width="4" height="4"/>
<rect x="129.241" y="227" fill="#E08C01" width="4" height="4"/>
<rect x="133.241" y="231" fill="#E08C01" width="4" height="4"/>
<rect x="137.241" y="231" fill="#4F2401" width="3" height="4"/>
<rect x="140.241" y="231" width="8" height="4"/>
<rect x="148.241" y="227" width="4" height="4"/>
<rect x="133.241" y="227" fill="#8A4000" width="15" height="4"/>
<rect x="152.241" y="223" width="15" height="4"/>
<rect x="167.241" y="223" fill="#4F2401" width="4" height="4"/>
<rect x="174.241" y="227" fill="#4F2401" width="4" height="4"/>
<rect x="182.241" y="231" fill="#4F2401" width="4" height="4"/>
<rect x="171.241" y="227" width="3" height="4"/>
<rect x="144.241" y="223" fill="#D68300" width="8" height="4"/>
<rect x="126.241" y="231" fill="#8A4000" width="3" height="4"/>
<rect x="133.241" y="235" fill="#4F2401" width="4" height="4"/>
<rect x="129.241" y="175" fill="#D68300" width="4" height="3"/>
<rect x="129.241" y="186" fill="#D68300" width="4" height="4"/>
<rect x="144.241" y="189" fill="#D68300" width="4" height="4"/>
<rect x="144.241" y="182" fill="#8A4000" width="4" height="7"/>
<rect x="148.241" y="193" fill="#8A4000" width="4" height="4"/>
<rect x="144.241" y="197" fill="#8A4000" width="4" height="4"/>
<rect x="133.241" y="197" fill="#8A4000" width="4" height="4"/>
<rect x="140.241" y="197" fill="#D68300" width="4" height="4"/>
<rect x="137.241" y="201" fill="#8A4000" width="7" height="4"/>
<rect x="141.241" y="175" fill="#8A4000" width="3" height="4"/>
<rect x="141.241" y="179" fill="#D68300" width="3" height="3"/>
<rect x="129.241" y="190" fill="#8A4000" width="4" height="7"/>
<polygon fill="#B8050B" points="185.241,137 185.241,141 174.241,141 174.241,148 178.241,148 178.241,152 185.241,152 185.241,148 
	189.241,148 189.241,141 189.241,137 "/>
<rect x="137.241" y="141" fill="#D68300" width="4" height="4"/>
<rect x="141.241" y="141" fill="#481E00" width="3" height="4"/>
<rect x="144.241" y="137" fill="#481E00" width="4" height="4"/>
<rect x="144.241" y="141" fill="#8A4000" width="4" height="4"/>
<rect x="156.241" y="141" fill="#8A4000" width="7" height="4"/>
<rect x="148.241" y="137" fill="#8A4000" width="4" height="4"/>
<rect x="152.241" y="137" fill="#D68300" width="4" height="4"/>
<rect x="163.241" y="141" fill="#D68300" width="4" height="4"/>
<path fill="#F4E534" d="M163.241,134v-4v-8v-3v-1h-22v-3h-4v4h-4v3h8v8h-4v4v3h-11v4h7v4h4v-4h7v-4h12v4h11v4h4v-4h3v-4h4v-3
	H163.241z M152.241,134h-8v-4h8V134z"/>
<rect x="148.241" y="141" fill="#F4B200" width="8" height="4"/>
<polygon fill="#F4B200" points="189.241,137 189.241,148 185.241,148 185.241,152 178.241,152 178.241,148 174.241,148 174.241,145 
	174.241,141 171.241,141 171.241,145 133.241,145 133.241,141 129.241,141 129.241,156 133.241,156 133.241,163 137.241,163 
	137.241,167 144.241,167 144.241,171 152.241,171 152.241,175 170.241,175 170.241,171 174.241,171 174.241,175 178.241,175 
	178.241,171 186.241,171 186.241,167 189.241,167 189.241,163 193.241,163 193.241,152 193.241,148 193.241,137 "/>
<rect x="170.241" y="171" fill="#D68300" width="4" height="4"/>
<rect x="167.241" y="175" fill="#D68300" width="3" height="7"/>
<rect x="163.241" y="182" fill="#8A4000" width="4" height="8"/>
<rect x="167.241" y="201" fill="#8A4000" width="7" height="4"/>
<rect x="174.241" y="197" fill="#8A4000" width="4" height="4"/>
<rect x="171.241" y="197" fill="#D68300" width="3" height="4"/>
<rect x="178.241" y="193" fill="#8A4000" width="4" height="4"/>
<rect x="182.241" y="190" fill="#8A4000" width="4" height="3"/>
<rect x="182.241" y="186" fill="#F8B700" width="4" height="4"/>
<rect x="186.241" y="186" fill="#D68300" width="3" height="4"/>
<rect x="186.241" y="182" fill="#F4B200" width="3" height="4"/>
<rect x="159.241" y="190" fill="#8A4000" width="4" height="3"/>
<rect x="159.241" y="193" width="4" height="4"/>
<rect x="163.241" y="197" width="4" height="4"/>
<rect x="163.241" y="193" fill="#D68300" width="4" height="4"/>
<rect x="178.241" y="208" fill="#F4B200" width="4" height="4"/>
<rect x="178.241" y="212" fill="#F4E534" width="4" height="4"/>
<rect x="186.241" y="212" fill="#F4E534" width="3" height="4"/>
<rect x="182.241" y="208" fill="#F4E534" width="4" height="4"/>
<rect x="189.241" y="208" fill="#F4E534" width="4" height="4"/>
<polygon fill="#F4E534" points="197.241,179 197.241,174 197.241,171 197.241,168 197.241,167 197.241,163 197.241,160 193.241,160 
	193.241,163 189.241,163 189.241,167 186.241,167 186.241,171 178.241,171 178.241,175 170.241,175 170.241,182 167.241,182 
	167.241,190 163.241,190 163.241,193 167.241,193 167.241,197 167.241,201 171.241,201 171.241,197 178.241,197 178.241,193 
	182.241,193 182.241,190 182.241,186 186.241,186 186.241,182 189.241,182 189.241,190 186.241,190 186.241,193 182.241,193 
	182.241,197 178.241,197 178.241,201 174.241,201 174.241,205 167.241,205 167.241,201 163.241,201 163.241,197 159.241,197 
	159.241,193 159.241,190 163.241,190 163.241,182 167.241,182 167.241,175 152.241,175 152.241,171 144.241,171 144.241,167 
	137.241,167 137.241,163 133.241,163 133.241,178 129.241,178 129.241,186 133.241,186 133.241,197 137.241,197 137.241,201 
	140.241,201 140.241,197 144.241,197 148.241,197 148.241,193 144.241,193 144.241,182 141.241,182 141.241,181 141.241,178 
	141.241,175 144.241,175 144.241,182 148.241,182 148.241,190 148.241,193 152.241,193 152.241,197 148.241,197 148.241,201 
	144.241,201 144.241,205 137.241,205 137.241,201 133.241,201 133.241,197 125.241,197 125.241,209 129.241,209 129.241,212 
	137.241,212 140.241,212 140.241,216 167.241,216 167.241,212 174.241,212 178.241,212 178.241,208 182.241,208 182.241,205 
	186.241,205 186.241,209 190.241,209 190.241,201 193.241,201 193.241,194 197.241,194 197.241,186 201.241,186 201.241,179 "/>
<rect x="182.241" y="205" fill="#F4B200" width="4" height="3"/>
<rect x="186.241" y="209" fill="#F4B200" width="3" height="3"/>
<polygon fill="#F4B200" points="208.241,208 204.241,208 204.241,203 204.241,201 204.241,193 201.241,193 201.241,186 197.241,186 
	197.241,194 193.241,194 193.241,201 190.241,201 190.241,208 193.241,208 193.241,212 189.241,212 189.241,216 186.241,216 
	186.241,212 182.241,212 182.241,216 178.241,216 178.241,212 167.241,212 167.241,216 144.241,216 141.241,216 140.241,216 
	140.241,212 129.241,212 129.241,209 125.241,209 125.241,205 122.241,205 122.241,216 125.241,216 126.241,216 126.241,223 
	133.241,223 133.241,227 144.241,227 144.241,223 171.241,223 171.241,227 197.241,227 197.241,223 201.241,223 201.241,220 
	204.241,220 204.241,216 208.241,216 "/>
<polygon fill="#D68300" points="216.241,182 216.241,178 212.241,178 212.241,182 208.241,182 208.241,186 204.241,186 204.241,190 
	208.241,190 208.241,193 216.241,193 216.241,190 219.241,190 219.241,186 219.241,182 "/>
<rect x="216.241" y="190" width="3" height="3"/>
<rect x="219.241" y="193" width="4" height="4"/>
<rect x="223.241" y="197" width="4" height="8"/>
<rect x="215.241" y="205" width="8" height="4"/>
<polygon points="208.241,208 208.241,212 208.241,216 212.241,216 212.241,212 215.241,212 215.241,208 "/>
<polygon points="212.241,197 212.241,193 208.241,193 208.241,190 204.241,190 204.241,179 201.241,179 201.241,193 204.241,193 
	204.241,205 208.241,205 212.241,205 212.241,201 208.241,201 208.241,197 "/>
<rect x="216.241" y="175" fill="#D68300" width="3" height="3"/>
<rect x="223.241" y="182" fill="#D68300" width="4" height="4"/>
<rect x="212.241" y="167" fill="#481E00" width="4" height="4"/>
<rect x="208.241" y="163" fill="#481E00" width="4" height="4"/>
<rect x="204.241" y="159" fill="#481E00" width="4" height="4"/>
<rect x="201.241" y="152" fill="#843800" width="3" height="8"/>
<rect x="204.241" y="149" fill="#843800" width="4" height="3"/>
<rect x="208.241" y="141" fill="#843800" width="4" height="8"/>
<rect x="212.241" y="137" fill="#843800" width="4" height="4"/>
<rect x="216.241" y="134" fill="#843800" width="3" height="3"/>
<rect x="219.241" y="130" fill="#D68300" width="8" height="3"/>
<rect x="227.241" y="126" fill="#D68300" width="4" height="4"/>
<rect x="231.241" y="122" fill="#D68300" width="4" height="4"/>
<rect x="234.241" y="118" fill="#843800" width="4" height="4"/>
<rect x="238.241" y="115" fill="#843800" width="4" height="4"/>
<rect x="249.241" y="114" fill="#843800" width="4" height="4"/>
<rect x="253.241" y="118" fill="#843800" width="4" height="8"/>
<rect x="257.241" y="126" fill="#843800" width="4" height="11"/>
<rect x="261.241" y="137" fill="#843800" width="4" height="11"/>
<rect x="257.241" y="148" width="4" height="4"/>
<rect x="249.241" y="152" width="8" height="4"/>
<rect x="242.241" y="156" width="7" height="4"/>
<rect x="234.241" y="160" width="8" height="4"/>
<rect x="227.241" y="163" width="7" height="4"/>
<rect x="242.241" y="111" fill="#843800" width="7" height="4"/>
<rect x="227.241" y="171" fill="#481E00" width="3" height="7"/>
<rect x="223.241" y="167" fill="#843800" width="4" height="4"/>
<rect x="231.241" y="179" fill="#481E00" width="3" height="3"/>
<rect x="227.241" y="182" fill="#481E00" width="4" height="4"/>
<rect x="219.241" y="186" fill="#481E00" width="8" height="4"/>
<rect x="204.241" y="205" fill="#481E00" width="8" height="3"/>
<rect x="204.241" y="216" fill="#481E00" width="4" height="4"/>
<rect x="204.241" y="220" width="4" height="3"/>
<rect x="201.241" y="220" fill="#E08C01" width="3" height="3"/>
<rect x="197.241" y="223" fill="#E08C01" width="4" height="4"/>
<rect x="193.241" y="227" fill="#843800" width="4" height="4"/>
<rect x="178.241" y="227" fill="#843800" width="8" height="4"/>
<rect x="197.241" y="231" fill="#843800" width="4" height="4"/>
<rect x="193.241" y="235" fill="#843800" width="4" height="3"/>
<rect x="197.241" y="235" fill="#F4E534" width="4" height="3"/>
<rect x="189.241" y="235" fill="#F4E534" width="4" height="3"/>
<rect x="186.241" y="231" fill="#F4B200" width="11" height="4"/>
<rect x="186.241" y="227" fill="#E08C01" width="7" height="4"/>
<rect x="201.241" y="223" width="3" height="4"/>
<rect x="197.241" y="227" width="4" height="4"/>
<rect x="201.241" y="231" width="4" height="8"/>
<rect x="189.241" y="238" width="12" height="4"/>
<rect x="182.241" y="235" width="7" height="3"/>
<polygon fill="#F4B200" points="238.241,156 231.241,156 231.241,152 223.241,152 223.241,149 216.241,149 216.241,145 212.241,145 
	212.241,149 208.241,149 208.241,152 204.241,152 204.241,159 208.241,159 208.241,163 212.241,163 212.241,167 216.241,167 
	216.241,171 219.241,171 219.241,178 216.241,178 216.241,182 219.241,182 219.241,186 223.241,186 223.241,182 231.241,182 
	231.241,178 227.241,178 227.241,171 223.241,171 223.241,167 227.241,167 227.241,163 234.241,163 234.241,160 238.241,160 "/>
<polygon fill="#F4E534" points="257.241,137 257.241,134 257.241,133 257.241,131 257.241,130 257.241,126 253.241,126 253.241,124 
	253.241,122 253.241,118 249.241,118 249.241,115 242.241,115 242.241,119 238.241,119 238.241,122 235.241,122 235.241,126 
	231.241,126 231.241,130 227.241,130 227.241,133 219.241,133 219.241,137 216.241,137 216.241,141 212.241,141 212.241,145 
	216.241,145 216.241,147 216.241,148 216.241,149 223.241,149 223.241,152 231.241,152 231.241,156 238.241,156 238.241,160 
	242.241,160 242.241,156 249.241,156 249.241,152 257.241,152 257.241,148 261.241,148 261.241,145 261.241,142 261.241,141 
	261.241,137 "/>
<polygon fill="#8A4000" points="219.241,197 219.241,193 212.241,193 212.241,197 216.241,197 216.241,201 212.241,201 212.241,204 
	212.241,205 212.241,208 215.241,208 215.241,205 223.241,205 223.241,201 223.241,197 "/>
</svg>
